# This file uses centimeters as units for non-parametric coordinates.

mtllib ico.mtl
g default
v 0.000000 -0.525731 3.350651
v 0.850651 0.000000 3.025731
v 0.850651 0.000000 1.974269
v -0.850651 0.000000 1.974269
v -0.850651 0.000000 3.025731
v -0.525731 0.850651 2.500000
v 0.525731 0.850651 2.500000
v 0.525731 -0.850651 2.500000
v -0.525731 -0.850651 2.500000
v 0.000000 -0.525731 1.649349
v 0.000000 0.525731 1.649349
v 0.000000 0.525731 3.350651
vt 0.661912 0.500000
vt 0.838120 0.500000
vt 0.750016 1.147584
vt 0.750016 -0.147584
vt 0.161912 0.500000
vt 0.338120 0.500000
vt 0.250016 1.147584
vt 0.250016 -0.147584
vt 0.500016 0.852416
vt 1.250016 1.147584
vt 1.000016 0.852416
vt 1.000016 0.147584
vt 0.000016 0.852416
vt 0.000016 0.147584
vt 0.500016 0.147584
vn 0.934172 0.356822 0.000000
vn 0.934172 0.356822 0.000000
vn 0.934172 0.356822 0.000000
vn 0.934172 -0.356822 0.000000
vn 0.934172 -0.356822 0.000000
vn 0.934172 -0.356822 0.000000
vn -0.934172 0.356822 0.000000
vn -0.934172 0.356822 0.000000
vn -0.934172 0.356822 0.000000
vn -0.934172 -0.356822 0.000000
vn -0.934172 -0.356822 0.000000
vn -0.934172 -0.356822 0.000000
vn 0.000000 0.934172 0.356822
vn 0.000000 0.934172 0.356822
vn 0.000000 0.934172 0.356822
vn 0.000000 0.934172 -0.356822
vn 0.000000 0.934172 -0.356822
vn 0.000000 0.934172 -0.356822
vn 0.356822 0.000000 -0.934172
vn 0.356822 0.000000 -0.934172
vn 0.356822 0.000000 -0.934172
vn -0.356822 0.000000 -0.934172
vn -0.356822 0.000000 -0.934172
vn -0.356822 0.000000 -0.934172
vn 0.000000 -0.934172 -0.356822
vn 0.000000 -0.934172 -0.356822
vn 0.000000 -0.934172 -0.356822
vn 0.000000 -0.934172 0.356822
vn 0.000000 -0.934172 0.356822
vn 0.000000 -0.934172 0.356822
vn 0.356822 0.000000 0.934172
vn 0.356822 0.000000 0.934172
vn 0.356822 0.000000 0.934172
vn -0.356822 0.000000 0.934172
vn -0.356822 0.000000 0.934172
vn -0.356822 0.000000 0.934172
vn 0.577350 0.577350 -0.577350
vn 0.577350 0.577350 -0.577350
vn 0.577350 0.577350 -0.577350
vn 0.577350 0.577350 0.577350
vn 0.577350 0.577350 0.577350
vn 0.577350 0.577350 0.577350
vn -0.577350 0.577350 -0.577350
vn -0.577350 0.577350 -0.577350
vn -0.577350 0.577350 -0.577350
vn -0.577350 0.577350 0.577350
vn -0.577350 0.577350 0.577350
vn -0.577350 0.577350 0.577350
vn 0.577350 -0.577350 -0.577350
vn 0.577350 -0.577350 -0.577350
vn 0.577350 -0.577350 -0.577350
vn 0.577350 -0.577350 0.577350
vn 0.577350 -0.577350 0.577350
vn 0.577350 -0.577350 0.577350
vn -0.577350 -0.577350 -0.577350
vn -0.577350 -0.577350 -0.577350
vn -0.577350 -0.577350 -0.577350
vn -0.577350 -0.577350 0.577350
vn -0.577350 -0.577350 0.577350
vn -0.577350 -0.577350 0.577350
s off
g Object001
usemtl initialShadingGroup1
f 2/1/1 3/2/2 7/3/3
f 2/1/4 8/4/5 3/2/6
f 4/5/7 5/6/8 6/7/9
f 5/6/10 4/5/11 9/8/12
f 7/3/13 6/7/14 12/9/15
f 6/10/16 7/3/17 11/11/18
f 10/12/19 11/11/20 3/2/21
f 11/13/22 10/14/23 4/5/24
f 8/4/25 9/8/26 10/12/27
f 9/8/28 8/4/29 1/15/30
f 12/9/31 1/15/32 2/1/33
f 1/15/34 12/9/35 5/6/36
f 7/3/37 3/2/38 11/11/39
f 2/1/40 7/3/41 12/9/42
f 4/5/43 6/7/44 11/13/45
f 6/7/46 5/6/47 12/9/48
f 3/2/49 8/4/50 10/12/51
f 8/4/52 2/1/53 1/15/54
f 4/5/55 10/14/56 9/8/57
f 5/6/58 9/8/59 1/15/60
