# This file uses centimeters as units for non-parametric coordinates.

mtllib randomObj.mtl
g default
v -1.050291 -2.416041 6.538958
v -0.971917 -1.805441 5.693719
v -1.261571 -0.888664 5.282593
v -1.808614 -0.015887 5.462617
v -2.404094 0.479518 6.165027
v -2.820559 0.408324 7.121527
v -2.898932 -0.202276 7.966766
v -2.609279 -1.119053 8.377892
v -2.062236 -1.991829 8.197868
v -1.466756 -2.487234 7.495458
v 0.669885 -2.668399 6.915901
v 0.796697 -1.680428 5.548275
v 0.328027 -0.197051 4.883060
v -0.557107 1.215131 5.174345
v -1.520614 2.016714 6.310868
v -2.194468 1.901519 7.858518
v -2.321280 0.913548 9.226143
v -1.852610 -0.569828 9.891359
v -0.967477 -1.982010 9.600074
v -0.003969 -2.783593 8.463551
v 2.119958 -1.901519 7.604350
v 2.246769 -0.913548 6.236724
v 1.778100 0.569828 5.571509
v 0.892966 1.982011 5.862793
v -0.070542 2.783593 6.999317
v -0.744396 2.668399 8.546966
v -0.871207 1.680428 9.914592
v -0.402538 0.197052 10.579807
v 0.482596 -1.215131 10.288523
v 1.446103 -2.016713 9.151999
v 2.746048 -0.408324 8.341340
v 2.824422 0.202276 7.496101
v 2.534768 1.119053 7.084976
v 1.987725 1.991829 7.264999
v 1.392245 2.487235 7.967410
v 0.975780 2.416041 8.923910
v 0.897407 1.805441 9.769149
v 1.187060 0.888664 10.180274
v 1.734103 0.015888 10.000250
v 2.329583 -0.479518 9.297840
v -2.383522 -1.240837 6.617500
v 2.309011 1.240837 8.845367
vt 0.000000 0.200000
vt 0.100000 0.200000
vt 0.200000 0.200000
vt 0.300000 0.200000
vt 0.400000 0.200000
vt 0.500000 0.200000
vt 0.600000 0.200000
vt 0.700000 0.200000
vt 0.800000 0.200000
vt 0.900000 0.200000
vt 1.000000 0.200000
vt 0.000000 0.400000
vt 0.100000 0.400000
vt 0.200000 0.400000
vt 0.300000 0.400000
vt 0.400000 0.400000
vt 0.500000 0.400000
vt 0.600000 0.400000
vt 0.700000 0.400000
vt 0.800000 0.400000
vt 0.900000 0.400000
vt 1.000000 0.400000
vt 0.000000 0.600000
vt 0.100000 0.600000
vt 0.200000 0.600000
vt 0.300000 0.600000
vt 0.400000 0.600000
vt 0.500000 0.600000
vt 0.600000 0.600000
vt 0.700000 0.600000
vt 0.800000 0.600000
vt 0.900000 0.600000
vt 1.000000 0.600000
vt 0.000000 0.800000
vt 0.100000 0.800000
vt 0.200000 0.800000
vt 0.300000 0.800000
vt 0.400000 0.800000
vt 0.500000 0.800000
vt 0.600000 0.800000
vt 0.700000 0.800000
vt 0.800000 0.800000
vt 0.900000 0.800000
vt 1.000000 0.800000
vt 0.050000 0.000000
vt 0.150000 0.000000
vt 0.250000 0.000000
vt 0.350000 0.000000
vt 0.450000 0.000000
vt 0.550000 0.000000
vt 0.650000 0.000000
vt 0.750000 0.000000
vt 0.850000 0.000000
vt 0.950000 0.000000
vt 0.050000 1.000000
vt 0.150000 1.000000
vt 0.250000 1.000000
vt 0.350000 1.000000
vt 0.450000 1.000000
vt 0.550000 1.000000
vt 0.650000 1.000000
vt 0.750000 1.000000
vt 0.850000 1.000000
vt 0.950000 1.000000
vn 0.009216 -0.810982 -0.584998
vn 0.009216 -0.810982 -0.584998
vn 0.009216 -0.810982 -0.584998
vn 0.009216 -0.810982 -0.584998
vn -0.044796 -0.420524 -0.906175
vn -0.044796 -0.420524 -0.906175
vn -0.044796 -0.420524 -0.906175
vn -0.044796 -0.420524 -0.906175
vn -0.258689 0.036957 -0.965254
vn -0.258689 0.036957 -0.965254
vn -0.258689 0.036957 -0.965254
vn -0.258689 0.036957 -0.965254
vn -0.550763 0.386718 -0.739668
vn -0.550763 0.386718 -0.739668
vn -0.550763 0.386718 -0.739668
vn -0.550763 0.386718 -0.739668
vn -0.809456 0.495164 -0.315585
vn -0.809456 0.495164 -0.315585
vn -0.809456 0.495164 -0.315585
vn -0.809456 0.495164 -0.315585
vn -0.935956 0.320870 0.145011
vn -0.935956 0.320870 0.145011
vn -0.935956 0.320870 0.145011
vn -0.935956 0.320870 0.145011
vn -0.881945 -0.069588 0.466188
vn -0.881945 -0.069588 0.466188
vn -0.881945 -0.069588 0.466188
vn -0.881945 -0.069588 0.466188
vn -0.668052 -0.527069 0.525266
vn -0.668052 -0.527069 0.525266
vn -0.668052 -0.527069 0.525266
vn -0.668052 -0.527069 0.525266
vn -0.375978 -0.876831 0.299681
vn -0.375978 -0.876831 0.299681
vn -0.375978 -0.876831 0.299681
vn -0.375978 -0.876831 0.299681
vn -0.117284 -0.985276 -0.124402
vn -0.117284 -0.985276 -0.124402
vn -0.117284 -0.985276 -0.124402
vn -0.117284 -0.985276 -0.124402
vn 0.574432 -0.687887 -0.443665
vn 0.574432 -0.687887 -0.443665
vn 0.574432 -0.687887 -0.443665
vn 0.574432 -0.687887 -0.443665
vn 0.508780 -0.213283 -0.834058
vn 0.508780 -0.213283 -0.834058
vn 0.508780 -0.213283 -0.834058
vn 0.508780 -0.213283 -0.834058
vn 0.248792 0.342789 -0.905869
vn 0.248792 0.342789 -0.905869
vn 0.248792 0.342789 -0.905869
vn 0.248792 0.342789 -0.905869
vn -0.106226 0.767926 -0.631668
vn -0.106226 0.767926 -0.631668
vn -0.106226 0.767926 -0.631668
vn -0.106226 0.767926 -0.631668
vn -0.420670 0.899742 -0.116192
vn -0.420670 0.899742 -0.116192
vn -0.420670 0.899742 -0.116192
vn -0.420670 0.899742 -0.116192
vn -0.574432 0.687887 0.443666
vn -0.574432 0.687887 0.443666
vn -0.574432 0.687887 0.443666
vn -0.574432 0.687887 0.443666
vn -0.508780 0.213283 0.834058
vn -0.508780 0.213283 0.834058
vn -0.508780 0.213283 0.834058
vn -0.508780 0.213283 0.834058
vn -0.248792 -0.342789 0.905869
vn -0.248792 -0.342789 0.905869
vn -0.248792 -0.342789 0.905869
vn -0.248792 -0.342789 0.905869
vn 0.106226 -0.767926 0.631669
vn 0.106226 -0.767926 0.631669
vn 0.106226 -0.767926 0.631669
vn 0.106226 -0.767926 0.631669
vn 0.420670 -0.899742 0.116192
vn 0.420670 -0.899742 0.116192
vn 0.420670 -0.899742 0.116192
vn 0.420670 -0.899742 0.116192
vn 0.935956 -0.320870 -0.145011
vn 0.935956 -0.320870 -0.145011
vn 0.935956 -0.320870 -0.145011
vn 0.935956 -0.320870 -0.145011
vn 0.881945 0.069588 -0.466187
vn 0.881945 0.069588 -0.466187
vn 0.881945 0.069588 -0.466187
vn 0.881945 0.069588 -0.466187
vn 0.668052 0.527069 -0.525266
vn 0.668052 0.527069 -0.525266
vn 0.668052 0.527069 -0.525266
vn 0.668052 0.527069 -0.525266
vn 0.375978 0.876831 -0.299681
vn 0.375978 0.876831 -0.299681
vn 0.375978 0.876831 -0.299681
vn 0.375978 0.876831 -0.299681
vn 0.117284 0.985276 0.124402
vn 0.117284 0.985276 0.124402
vn 0.117284 0.985276 0.124402
vn 0.117284 0.985276 0.124402
vn -0.009216 0.810982 0.584998
vn -0.009216 0.810982 0.584998
vn -0.009216 0.810982 0.584998
vn -0.009216 0.810982 0.584998
vn 0.044796 0.420524 0.906175
vn 0.044796 0.420524 0.906175
vn 0.044796 0.420524 0.906175
vn 0.044796 0.420524 0.906175
vn 0.258688 -0.036957 0.965254
vn 0.258688 -0.036957 0.965254
vn 0.258688 -0.036957 0.965254
vn 0.258688 -0.036957 0.965254
vn 0.550763 -0.386718 0.739668
vn 0.550763 -0.386718 0.739668
vn 0.550763 -0.386718 0.739668
vn 0.550763 -0.386718 0.739668
vn 0.809456 -0.495164 0.315585
vn 0.809456 -0.495164 0.315585
vn 0.809456 -0.495164 0.315585
vn 0.809456 -0.495164 0.315585
vn -0.585630 -0.630318 -0.509643
vn -0.585630 -0.630318 -0.509643
vn -0.585630 -0.630318 -0.509643
vn -0.606855 -0.476881 -0.635855
vn -0.606855 -0.476881 -0.635855
vn -0.606855 -0.476881 -0.635855
vn -0.690908 -0.297107 -0.659071
vn -0.690908 -0.297107 -0.659071
vn -0.690908 -0.297107 -0.659071
vn -0.805683 -0.159662 -0.570423
vn -0.805683 -0.159662 -0.570423
vn -0.805683 -0.159662 -0.570423
vn -0.907341 -0.117047 -0.403773
vn -0.907341 -0.117047 -0.403773
vn -0.907341 -0.117047 -0.403773
vn -0.957051 -0.185538 -0.222774
vn -0.957051 -0.185538 -0.222774
vn -0.957051 -0.185538 -0.222774
vn -0.935827 -0.338975 -0.096562
vn -0.935827 -0.338975 -0.096562
vn -0.935827 -0.338975 -0.096562
vn -0.851774 -0.518750 -0.073346
vn -0.851774 -0.518750 -0.073346
vn -0.851774 -0.518750 -0.073346
vn -0.736999 -0.656194 -0.161994
vn -0.736999 -0.656194 -0.161994
vn -0.736999 -0.656194 -0.161994
vn -0.635341 -0.698810 -0.328644
vn -0.635341 -0.698810 -0.328644
vn -0.635341 -0.698810 -0.328644
vn 0.957051 0.185538 0.222774
vn 0.957051 0.185538 0.222774
vn 0.957051 0.185538 0.222774
vn 0.935827 0.338975 0.096562
vn 0.935827 0.338975 0.096562
vn 0.935827 0.338975 0.096562
vn 0.851774 0.518750 0.073346
vn 0.851774 0.518750 0.073346
vn 0.851774 0.518750 0.073346
vn 0.736999 0.656194 0.161994
vn 0.736999 0.656194 0.161994
vn 0.736999 0.656194 0.161994
vn 0.635341 0.698810 0.328644
vn 0.635341 0.698810 0.328644
vn 0.635341 0.698810 0.328644
vn 0.585630 0.630318 0.509643
vn 0.585630 0.630318 0.509643
vn 0.585630 0.630318 0.509643
vn 0.606855 0.476881 0.635855
vn 0.606855 0.476881 0.635855
vn 0.606855 0.476881 0.635855
vn 0.690908 0.297107 0.659071
vn 0.690908 0.297107 0.659071
vn 0.690908 0.297107 0.659071
vn 0.805683 0.159662 0.570423
vn 0.805683 0.159662 0.570423
vn 0.805683 0.159662 0.570423
vn 0.907341 0.117047 0.403773
vn 0.907341 0.117047 0.403773
vn 0.907341 0.117047 0.403773
s off
g pSphere1
usemtl initialShadingGroup
f 1/1/1 2/2/2 12/13/3 11/12/4
f 2/2/5 3/3/6 13/14/7 12/13/8
f 3/3/9 4/4/10 14/15/11 13/14/12
f 4/4/13 5/5/14 15/16/15 14/15/16
f 5/5/17 6/6/18 16/17/19 15/16/20
f 6/6/21 7/7/22 17/18/23 16/17/24
f 7/7/25 8/8/26 18/19/27 17/18/28
f 8/8/29 9/9/30 19/20/31 18/19/32
f 9/9/33 10/10/34 20/21/35 19/20/36
f 10/10/37 1/11/38 11/22/39 20/21/40
f 11/12/41 12/13/42 22/24/43 21/23/44
f 12/13/45 13/14/46 23/25/47 22/24/48
f 13/14/49 14/15/50 24/26/51 23/25/52
f 14/15/53 15/16/54 25/27/55 24/26/56
f 15/16/57 16/17/58 26/28/59 25/27/60
f 16/17/61 17/18/62 27/29/63 26/28/64
f 17/18/65 18/19/66 28/30/67 27/29/68
f 18/19/69 19/20/70 29/31/71 28/30/72
f 19/20/73 20/21/74 30/32/75 29/31/76
f 20/21/77 11/22/78 21/33/79 30/32/80
f 21/23/81 22/24/82 32/35/83 31/34/84
f 22/24/85 23/25/86 33/36/87 32/35/88
f 23/25/89 24/26/90 34/37/91 33/36/92
f 24/26/93 25/27/94 35/38/95 34/37/96
f 25/27/97 26/28/98 36/39/99 35/38/100
f 26/28/101 27/29/102 37/40/103 36/39/104
f 27/29/105 28/30/106 38/41/107 37/40/108
f 28/30/109 29/31/110 39/42/111 38/41/112
f 29/31/113 30/32/114 40/43/115 39/42/116
f 30/32/117 21/33/118 31/44/119 40/43/120
f 2/2/121 1/1/122 41/45/123
f 3/3/124 2/2/125 41/46/126
f 4/4/127 3/3/128 41/47/129
f 5/5/130 4/4/131 41/48/132
f 6/6/133 5/5/134 41/49/135
f 7/7/136 6/6/137 41/50/138
f 8/8/139 7/7/140 41/51/141
f 9/9/142 8/8/143 41/52/144
f 10/10/145 9/9/146 41/53/147
f 1/11/148 10/10/149 41/54/150
f 31/34/151 32/35/152 42/55/153
f 32/35/154 33/36/155 42/56/156
f 33/36/157 34/37/158 42/57/159
f 34/37/160 35/38/161 42/58/162
f 35/38/163 36/39/164 42/59/165
f 36/39/166 37/40/167 42/60/168
f 37/40/169 38/41/170 42/61/171
f 38/41/172 39/42/173 42/62/174
f 39/42/175 40/43/176 42/63/177
f 40/43/178 31/44/179 42/64/180
