# This file uses centimeters as units for non-parametric coordinates.

mtllib tetraBig.mtl
g default
v 0.872355 -3.068839 3.907198
v -0.880222 -7.201771 10.591551
v 4.479775 -2.416149 11.076141
v -2.001366 -0.337763 8.722059
vt 0.625000 0.125000
vt 0.250000 0.250000
vt 0.500000 0.500000
vt 0.250000 0.500000
vt 0.375000 0.500000
vt 0.500000 0.500000
vt 0.687500 0.500000
vt 0.500000 1.000000
vn 0.655365 -0.707149 -0.265399
vn 0.655365 -0.707149 -0.265399
vn 0.655365 -0.707149 -0.265399
vn -0.887212 -0.250446 -0.387469
vn -0.887212 -0.250446 -0.387469
vn -0.887212 -0.250446 -0.387469
vn -0.273231 0.210989 0.938525
vn -0.273231 0.210989 0.938525
vn -0.273231 0.210989 0.938525
vn 0.382191 0.882928 -0.272705
vn 0.382191 0.882928 -0.272705
vn 0.382191 0.882928 -0.272705
s off
g pPyramid1
usemtl initialShadingGroup
f 1/1/1 3/3/2 2/2/3
f 1/4/4 2/5/5 4/8/6
f 2/5/7 3/6/8 4/8/9
f 3/6/10 1/7/11 4/8/12
