# This file uses centimeters as units for non-parametric coordinates.

mtllib tetra_oriented.mtl
g default
v -0.746542 -0.237456 2.055313
v 0.413977 1.051300 2.267538
v 0.986884 -0.401119 2.200867
v 0.077537 0.133841 1.048002
vt 0.375000 0.125000
vt 0.500000 0.500000
vt 0.750000 0.250000
vt 0.312500 0.500000
vt 0.500000 0.500000
vt 0.625000 0.500000
vt 0.750000 0.500000
vt 0.500000 1.000000
vn -0.091032 -0.081467 0.992510
vn -0.091032 -0.081467 0.992510
vn -0.091032 -0.081467 0.992510
vn -0.680003 0.663665 -0.311681
vn -0.680003 0.663665 -0.311681
vn -0.680003 0.663665 -0.311681
vn 0.808563 0.340951 -0.479561
vn 0.808563 0.340951 -0.479561
vn 0.808563 0.340951 -0.479561
vn -0.054725 -0.921524 -0.384447
vn -0.054725 -0.921524 -0.384447
vn -0.054725 -0.921524 -0.384447
s off
g pPyramid1
usemtl initialShadingGroup
f 1/1/1 3/3/2 2/2/3
f 1/4/4 2/5/5 4/8/6
f 2/5/7 3/6/8 4/8/9
f 3/6/10 1/7/11 4/8/12
